<?xml version="1.0" encoding="UTF-8"?>
<!DOCTYPE svg PUBLIC "-//W3C//DTD SVG 1.1//EN" "http://www.w3.org/Graphics/SVG/1.1/DTD/svg11.dtd">
<svg xmlns="http://www.w3.org/2000/svg" version="1.1" width="67px" height="69px" style="shape-rendering:geometricPrecision; text-rendering:geometricPrecision; image-rendering:optimizeQuality; fill-rule:evenodd; clip-rule:evenodd" xmlns:xlink="http://www.w3.org/1999/xlink">
<g><path style="opacity:0.986" fill="#22c25c" d="M 20.5,-0.5 C 25.5,-0.5 30.5,-0.5 35.5,-0.5C 39.8295,4.85811 39.1629,9.52478 33.5,13.5C 20.8141,13.5192 14.4808,19.8525 14.5,32.5C 9.3945,33.1211 4.3945,34.1211 -0.5,35.5C -0.5,31.1667 -0.5,26.8333 -0.5,22.5C 3.38159,11.9532 10.3816,4.28651 20.5,-0.5 Z"/></g>
<g><path style="opacity:1" fill="#e5393b" d="M 35.5,-0.5 C 37.8333,-0.5 40.1667,-0.5 42.5,-0.5C 47.699,1.61156 52.0324,4.9449 55.5,9.5C 56.6252,18.04 52.9586,21.3734 44.5,19.5C 41.6,16.2145 37.9334,14.2145 33.5,13.5C 39.1629,9.52478 39.8295,4.85811 35.5,-0.5 Z"/></g>
<g><path style="opacity:1" fill="#884be8" d="M 55.5,9.5 C 61.7105,15.7927 64.3772,23.4593 63.5,32.5C 60.7517,37.5781 56.7517,38.7447 51.5,36C 50.6006,34.3484 49.6006,32.8484 48.5,31.5C 48.5532,26.9929 47.2199,22.9929 44.5,19.5C 52.9586,21.3734 56.6252,18.04 55.5,9.5 Z"/></g>
<g><path style="opacity:0.986" fill="#f8ba24" d="M 48.5,31.5 C 49.6006,32.8484 50.6006,34.3484 51.5,36C 56.7517,38.7447 60.7517,37.5781 63.5,32.5C 63.6664,41.5062 63.4998,50.5062 63,59.5C 60.0913,62.3939 56.5913,63.2272 52.5,62C 50.9512,60.786 49.7845,59.286 49,57.5C 42.8867,61.867 36.0534,63.5337 28.5,62.5C 22.9913,57.1898 23.3247,52.1898 29.5,47.5C 40.4711,47.5321 46.8044,42.1988 48.5,31.5 Z"/></g>
<g><path style="opacity:1" fill="#1f994c" d="M 14.5,32.5 C 15.0659,35.8732 16.3993,38.8732 18.5,41.5C 9.81214,39.8635 6.14547,43.1968 7.5,51.5C 3.55331,47.9372 0.886641,43.6039 -0.5,38.5C -0.5,37.5 -0.5,36.5 -0.5,35.5C 4.3945,34.1211 9.3945,33.1211 14.5,32.5 Z"/></g>
<g><path style="opacity:0.977" fill="#78879c" d="M 18.5,41.5 C 21.4,44.7855 25.0666,46.7855 29.5,47.5C 23.3247,52.1898 22.9913,57.1898 28.5,62.5C 19.5411,62.191 12.5411,58.5243 7.5,51.5C 6.14547,43.1968 9.81214,39.8635 18.5,41.5 Z"/></g>
</svg>
