<?xml version="1.0" encoding="UTF-8"?>
<!DOCTYPE svg PUBLIC "-//W3C//DTD SVG 1.1//EN" "http://www.w3.org/Graphics/SVG/1.1/DTD/svg11.dtd">
<svg xmlns="http://www.w3.org/2000/svg" version="1.1" width="151px" height="147px" style="shape-rendering:geometricPrecision; text-rendering:geometricPrecision; image-rendering:optimizeQuality; fill-rule:evenodd; clip-rule:evenodd" xmlns:xlink="http://www.w3.org/1999/xlink">
<g><path style="opacity:1" fill="#fcfefd" d="M -0.5,-0.5 C 49.8333,-0.5 100.167,-0.5 150.5,-0.5C 150.5,48.5 150.5,97.5 150.5,146.5C 100.167,146.5 49.8333,146.5 -0.5,146.5C -0.5,97.5 -0.5,48.5 -0.5,-0.5 Z"/></g>
<g><path style="opacity:1" fill="#50df7e" d="M 88.5,18.5 C 79.5226,17.4861 70.5226,17.3194 61.5,18C 55.0722,20.0865 48.7388,22.2532 42.5,24.5C 49.4613,19.2435 57.4613,16.4102 66.5,16C 74.1876,14.9007 81.5209,15.734 88.5,18.5 Z"/></g>
<g><path style="opacity:1" fill="#0ce752" d="M 88.5,18.5 C 91.9164,18.5275 94.9164,19.5275 97.5,21.5C 101.528,25.8447 106.528,28.8447 112.5,30.5C 118.014,34.3408 122.014,39.3408 124.5,45.5C 121.319,43.4083 118.319,41.075 115.5,38.5C 110.883,33.5841 105.216,30.2508 98.5,28.5C 81.6957,23.4645 66.6957,26.4645 53.5,37.5C 46.2797,42.9504 41.2797,49.9504 38.5,58.5C 38.1667,59.8333 37.8333,61.1667 37.5,62.5C 34.459,69.181 33.7924,76.181 35.5,83.5C 35.5,84.5 35.5,85.5 35.5,86.5C 34.2502,86.4226 33.4169,85.756 33,84.5C 31.3043,87.909 28.471,89.2423 24.5,88.5C 23.9715,91.8877 22.6381,94.8877 20.5,97.5C 22.305,104.287 25.9717,109.787 31.5,114C 33.8333,115 36.1667,116 38.5,117C 39.1737,118.751 39.507,120.417 39.5,122C 44.1548,122.499 48.8215,122.666 53.5,122.5C 61.0949,125.157 68.7616,125.157 76.5,122.5C 75.6016,123.158 74.6016,123.824 73.5,124.5C 73.7093,125.086 74.0426,125.586 74.5,126C 72.5858,127.12 70.7525,127.286 69,126.5C 66.2048,127.185 63.3715,127.685 60.5,128C 62.2909,128.415 63.6243,129.415 64.5,131C 61.379,133.179 59.2124,132.345 58,128.5C 56.3005,129.406 54.4672,129.739 52.5,129.5C 50.5,129.167 48.5,128.833 46.5,128.5C 46.5,127.5 46.5,126.5 46.5,125.5C 44.0971,125.552 41.7638,125.219 39.5,124.5C 37.5887,123.925 35.922,122.925 34.5,121.5C 31.7279,118.306 28.7279,115.306 25.5,112.5C 24.9744,110.77 23.9744,109.436 22.5,108.5C 21.3702,106.685 20.7036,104.685 20.5,102.5C 19.5683,97.997 17.9017,93.997 15.5,90.5C 14.7321,89.7375 14.2321,88.7375 14,87.5C 13.1768,78.9896 13.3434,70.6563 14.5,62.5C 15.9238,60.4855 16.5905,58.1522 16.5,55.5C 18.0719,50.6852 20.4053,46.3518 23.5,42.5C 25.5054,40.666 27.6721,38.9993 30,37.5C 30.4186,38.6721 31.0853,39.6721 32,40.5C 32.6514,38.765 32.4847,37.0983 31.5,35.5C 33.1667,34.8333 34.8333,34.1667 36.5,33.5C 36.1667,32.8333 35.8333,32.1667 35.5,31.5C 36.8569,29.8144 38.1902,28.1477 39.5,26.5C 39.9731,25.0937 40.9731,24.427 42.5,24.5C 48.7388,22.2532 55.0722,20.0865 61.5,18C 70.5226,17.3194 79.5226,17.4861 88.5,18.5 Z"/></g>
<g><path style="opacity:1" fill="#3ddf6f" d="M 97.5,21.5 C 103.264,23.2717 108.264,26.2717 112.5,30.5C 106.528,28.8447 101.528,25.8447 97.5,21.5 Z"/></g>
<g><path style="opacity:1" fill="#05a830" d="M 98.5,28.5 C 99.8146,30.1347 99.8146,31.8014 98.5,33.5C 99.1667,34.1667 99.8333,34.8333 100.5,35.5C 98.5767,36.3078 96.5767,36.8078 94.5,37C 95.6682,38.4056 95.3348,39.5723 93.5,40.5C 96.4798,43.4661 99.8132,46.1328 103.5,48.5C 104.309,50.0709 104.643,51.7376 104.5,53.5C 101.126,49.1245 97.1256,45.4578 92.5,42.5C 92.67,41.1779 92.3366,40.0113 91.5,39C 88.2104,38.7468 85.2104,37.7468 82.5,36C 78.1667,35.6667 73.8333,35.3333 69.5,35C 71.74,34.023 74.0733,33.523 76.5,33.5C 76.5,32.5 76.5,31.5 76.5,30.5C 70.2976,29.5568 64.9643,31.3901 60.5,36C 58.1873,36.662 55.854,37.162 53.5,37.5C 66.6957,26.4645 81.6957,23.4645 98.5,28.5 Z"/></g>
<g><path style="opacity:1" fill="#03b538" d="M 98.5,28.5 C 105.216,30.2508 110.883,33.5841 115.5,38.5C 115.461,39.5832 115.127,40.5832 114.5,41.5C 116.005,42.8415 116.672,44.5082 116.5,46.5C 112.931,46.8785 110.097,48.5452 108,51.5C 107.257,49.3553 106.424,49.1886 105.5,51C 107.924,54.4393 109.258,58.2726 109.5,62.5C 108.687,60.7392 107.687,59.0725 106.5,57.5C 105.833,56.1667 105.167,54.8333 104.5,53.5C 104.643,51.7376 104.309,50.0709 103.5,48.5C 99.8132,46.1328 96.4798,43.4661 93.5,40.5C 95.3348,39.5723 95.6682,38.4056 94.5,37C 96.5767,36.8078 98.5767,36.3078 100.5,35.5C 99.8333,34.8333 99.1667,34.1667 98.5,33.5C 99.8146,31.8014 99.8146,30.1347 98.5,28.5 Z"/></g>
<g><path style="opacity:1" fill="#34e369" d="M 39.5,26.5 C 38.1902,28.1477 36.8569,29.8144 35.5,31.5C 35.8333,32.1667 36.1667,32.8333 36.5,33.5C 34.8333,34.1667 33.1667,34.8333 31.5,35.5C 32.4847,37.0983 32.6514,38.765 32,40.5C 31.0853,39.6721 30.4186,38.6721 30,37.5C 27.6721,38.9993 25.5054,40.666 23.5,42.5C 27.1667,35.5 32.5,30.1667 39.5,26.5 Z"/></g>
<g><path style="opacity:1" fill="#15a138" d="M 92.5,42.5 C 91.1667,42.1667 89.8333,41.8333 88.5,41.5C 85.248,39.2236 81.5813,37.8903 77.5,37.5C 73.6888,36.3547 69.6888,36.1881 65.5,37C 64.944,37.3826 64.6107,37.8826 64.5,38.5C 60.6733,38.7516 57.3399,40.0849 54.5,42.5C 47.4938,46.1729 42.1605,51.5062 38.5,58.5C 41.2797,49.9504 46.2797,42.9504 53.5,37.5C 55.854,37.162 58.1873,36.662 60.5,36C 64.9643,31.3901 70.2976,29.5568 76.5,30.5C 76.5,31.5 76.5,32.5 76.5,33.5C 74.0733,33.523 71.74,34.023 69.5,35C 73.8333,35.3333 78.1667,35.6667 82.5,36C 85.2104,37.7468 88.2104,38.7468 91.5,39C 92.3366,40.0113 92.67,41.1779 92.5,42.5 Z"/></g>
<g><path style="opacity:1" fill="#4ba962" d="M 77.5,37.5 C 73.1018,37.2941 68.7685,37.6274 64.5,38.5C 64.6107,37.8826 64.944,37.3826 65.5,37C 69.6888,36.1881 73.6888,36.3547 77.5,37.5 Z"/></g>
<g><path style="opacity:1" fill="#e2fdec" d="M 77.5,37.5 C 81.5813,37.8903 85.248,39.2236 88.5,41.5C 79.9809,39.4985 71.3143,38.9985 62.5,40C 60.1382,41.7313 57.4715,42.5646 54.5,42.5C 57.3399,40.0849 60.6733,38.7516 64.5,38.5C 68.7685,37.6274 73.1018,37.2941 77.5,37.5 Z"/></g>
<g><path style="opacity:1" fill="#fcfefd" d="M 88.5,41.5 C 89.8333,41.8333 91.1667,42.1667 92.5,42.5C 97.1256,45.4578 101.126,49.1245 104.5,53.5C 105.167,54.8333 105.833,56.1667 106.5,57.5C 108.554,63.2667 109.554,69.2667 109.5,75.5C 109.606,80.6482 108.94,85.6482 107.5,90.5C 107.5,91.5 107.5,92.5 107.5,93.5C 105.367,95.0905 103.701,97.0905 102.5,99.5C 100.14,102.527 97.4729,105.194 94.5,107.5C 91.5152,108.326 88.8485,109.659 86.5,111.5C 84.1016,111.259 82.1016,111.926 80.5,113.5C 67.4641,115.202 56.1308,111.702 46.5,103C 44.3024,99.9772 41.969,97.1438 39.5,94.5C 39.3404,92.847 38.6737,91.5137 37.5,90.5C 37.5,89.1667 37.5,87.8333 37.5,86.5C 36.2105,78.5048 36.2105,70.5048 37.5,62.5C 37.8333,61.1667 38.1667,59.8333 38.5,58.5C 42.1605,51.5062 47.4938,46.1729 54.5,42.5C 57.4715,42.5646 60.1382,41.7313 62.5,40C 71.3143,38.9985 79.9809,39.4985 88.5,41.5 Z"/></g>
<g><path style="opacity:1" fill="#05c743" d="M 115.5,38.5 C 118.319,41.075 121.319,43.4083 124.5,45.5C 126.104,46.287 126.771,47.6203 126.5,49.5C 128.234,55.1895 129.567,60.8562 130.5,66.5C 129.859,67.4822 129.193,68.4822 128.5,69.5C 125.066,70.6971 121.9,72.3638 119,74.5C 118.667,73.8333 118.333,73.1667 118,72.5C 116.89,74.0368 115.39,74.7035 113.5,74.5C 113.663,76.8568 113.497,79.1902 113,81.5C 112.617,82.056 112.117,82.3893 111.5,82.5C 111.872,75.7 111.206,69.0334 109.5,62.5C 109.258,58.2726 107.924,54.4393 105.5,51C 106.424,49.1886 107.257,49.3553 108,51.5C 110.097,48.5452 112.931,46.8785 116.5,46.5C 116.672,44.5082 116.005,42.8415 114.5,41.5C 115.127,40.5832 115.461,39.5832 115.5,38.5 Z"/></g>
<g><path style="opacity:1" fill="#84eca7" d="M 16.5,55.5 C 16.5905,58.1522 15.9238,60.4855 14.5,62.5C 14.4095,59.8478 15.0762,57.5145 16.5,55.5 Z"/></g>
<g><path style="opacity:1" fill="#d6fde6" d="M 106.5,57.5 C 107.687,59.0725 108.687,60.7392 109.5,62.5C 111.206,69.0334 111.872,75.7 111.5,82.5C 110.715,85.4038 109.381,88.0704 107.5,90.5C 108.94,85.6482 109.606,80.6482 109.5,75.5C 109.554,69.2667 108.554,63.2667 106.5,57.5 Z"/></g>
<g><path style="opacity:1" fill="#bff9d5" d="M 37.5,62.5 C 36.2105,70.5048 36.2105,78.5048 37.5,86.5C 36.8333,85.5 36.1667,84.5 35.5,83.5C 33.7924,76.181 34.459,69.181 37.5,62.5 Z"/></g>
<g><path style="opacity:1" fill="#00d547" d="M 130.5,66.5 C 131.492,74.3159 131.826,82.3159 131.5,90.5C 130.732,89.7375 130.232,88.7375 130,87.5C 126.944,91.048 124.111,94.7147 121.5,98.5C 120.571,97.3112 120.238,95.9778 120.5,94.5C 117.5,94.1667 116.167,95.5 116.5,98.5C 115.5,98.5 114.5,98.5 113.5,98.5C 113.768,100.099 113.434,101.432 112.5,102.5C 112.81,99.2869 112.477,96.2869 111.5,93.5C 111.5,89.8333 111.5,86.1667 111.5,82.5C 112.117,82.3893 112.617,82.056 113,81.5C 113.497,79.1902 113.663,76.8568 113.5,74.5C 115.39,74.7035 116.89,74.0368 118,72.5C 118.333,73.1667 118.667,73.8333 119,74.5C 121.9,72.3638 125.066,70.6971 128.5,69.5C 129.193,68.4822 129.859,67.4822 130.5,66.5 Z"/></g>
<g><path style="opacity:1" fill="#02ef4f" d="M 35.5,86.5 C 35.9887,87.9952 36.6554,89.3285 37.5,90.5C 38.6737,91.5137 39.3404,92.847 39.5,94.5C 39.8333,97.1667 40.1667,99.8333 40.5,102.5C 41.5,102.5 42.5,102.5 43.5,102.5C 43.5,103.5 43.5,104.5 43.5,105.5C 44.5,105.5 45.5,105.5 46.5,105.5C 45.8166,107.176 44.4832,107.843 42.5,107.5C 43.449,109.737 44.1156,112.071 44.5,114.5C 43.0222,114.238 41.6888,114.571 40.5,115.5C 41.5,116.833 42.5,118.167 43.5,119.5C 46.9455,120.387 50.2788,121.387 53.5,122.5C 48.8215,122.666 44.1548,122.499 39.5,122C 39.507,120.417 39.1737,118.751 38.5,117C 36.1667,116 33.8333,115 31.5,114C 25.9717,109.787 22.305,104.287 20.5,97.5C 22.6381,94.8877 23.9715,91.8877 24.5,88.5C 28.471,89.2423 31.3043,87.909 33,84.5C 33.4169,85.756 34.2502,86.4226 35.5,86.5 Z"/></g>
<g><path style="opacity:1" fill="#5fe78c" d="M 35.5,83.5 C 36.1667,84.5 36.8333,85.5 37.5,86.5C 37.5,87.8333 37.5,89.1667 37.5,90.5C 36.6554,89.3285 35.9887,87.9952 35.5,86.5C 35.5,85.5 35.5,84.5 35.5,83.5 Z"/></g>
<g><path style="opacity:1" fill="#40df73" d="M 15.5,90.5 C 17.9017,93.997 19.5683,97.997 20.5,102.5C 19.1429,101.41 18.1429,100.076 17.5,98.5C 16.2504,95.994 15.5838,93.3274 15.5,90.5 Z"/></g>
<g><path style="opacity:1" fill="#41d56a" d="M 126.5,49.5 C 130.101,54.7871 132.267,60.7871 133,67.5C 133.667,87.1667 133.667,106.833 133,126.5C 132.8,128.32 131.966,129.653 130.5,130.5C 131.464,117.216 131.797,103.883 131.5,90.5C 131.826,82.3159 131.492,74.3159 130.5,66.5C 129.567,60.8562 128.234,55.1895 126.5,49.5 Z"/></g>
<g><path style="opacity:1" fill="#61e58e" d="M 107.5,93.5 C 107.443,94.609 107.11,95.609 106.5,96.5C 105.599,97.2905 104.932,98.2905 104.5,99.5C 103.833,99.5 103.167,99.5 102.5,99.5C 103.701,97.0905 105.367,95.0905 107.5,93.5 Z"/></g>
<g><path style="opacity:1" fill="#02e14c" d="M 131.5,90.5 C 131.797,103.883 131.464,117.216 130.5,130.5C 129.833,131.833 128.833,132.833 127.5,133.5C 124.167,133.5 120.833,133.5 117.5,133.5C 116.542,132.038 115.376,130.705 114,129.5C 112.736,120.546 112.236,111.546 112.5,102.5C 113.434,101.432 113.768,100.099 113.5,98.5C 114.5,98.5 115.5,98.5 116.5,98.5C 116.167,95.5 117.5,94.1667 120.5,94.5C 120.238,95.9778 120.571,97.3112 121.5,98.5C 124.111,94.7147 126.944,91.048 130,87.5C 130.232,88.7375 130.732,89.7375 131.5,90.5 Z"/></g>
<g><path style="opacity:1" fill="#d3fee5" d="M 17.5,98.5 C 18.1429,100.076 19.1429,101.41 20.5,102.5C 20.7036,104.685 21.3702,106.685 22.5,108.5C 21.5416,108.047 20.7083,107.381 20,106.5C 18.4086,104.073 17.5752,101.407 17.5,98.5 Z"/></g>
<g><path style="opacity:1" fill="#2ee261" d="M 102.5,99.5 C 103.167,99.5 103.833,99.5 104.5,99.5C 103.314,103.357 100.98,106.357 97.5,108.5C 96.791,107.596 95.791,107.263 94.5,107.5C 97.4729,105.194 100.14,102.527 102.5,99.5 Z"/></g>
<g><path style="opacity:1" fill="#0ab23a" d="M 111.5,82.5 C 111.5,86.1667 111.5,89.8333 111.5,93.5C 111.806,103.25 111.473,112.916 110.5,122.5C 108.77,123.026 107.436,124.026 106.5,125.5C 103.503,126.828 100.503,128.161 97.5,129.5C 99.3178,126.994 101.818,125.328 105,124.5C 106.151,115.259 106.651,105.926 106.5,96.5C 107.11,95.609 107.443,94.609 107.5,93.5C 107.5,92.5 107.5,91.5 107.5,90.5C 109.381,88.0704 110.715,85.4038 111.5,82.5 Z"/></g>
<g><path style="opacity:1" fill="#24d558" d="M 111.5,93.5 C 112.477,96.2869 112.81,99.2869 112.5,102.5C 112.236,111.546 112.736,120.546 114,129.5C 115.376,130.705 116.542,132.038 117.5,133.5C 115.938,133.267 114.605,132.6 113.5,131.5C 112.183,128.516 111.183,125.516 110.5,122.5C 111.473,112.916 111.806,103.25 111.5,93.5 Z"/></g>
<g><path style="opacity:1" fill="#1dc246" d="M 106.5,96.5 C 106.651,105.926 106.151,115.259 105,124.5C 101.818,125.328 99.3178,126.994 97.5,129.5C 87.1759,134.655 76.1759,136.488 64.5,135C 63.2625,134.768 62.2625,134.268 61.5,133.5C 68.5079,133.666 75.5079,133.5 82.5,133C 86.8056,130.594 91.4723,129.428 96.5,129.5C 96.6895,124.564 95.0228,120.398 91.5,117C 92.2524,116.329 92.5858,115.496 92.5,114.5C 94.4133,112.709 96.08,110.709 97.5,108.5C 100.98,106.357 103.314,103.357 104.5,99.5C 104.932,98.2905 105.599,97.2905 106.5,96.5 Z"/></g>
<g><path style="opacity:1" fill="#37e96b" d="M 39.5,94.5 C 41.969,97.1438 44.3024,99.9772 46.5,103C 56.1308,111.702 67.4641,115.202 80.5,113.5C 75.3497,114.651 70.0164,114.817 64.5,114C 59.9422,112.345 55.2755,111.179 50.5,110.5C 50.2623,107.931 48.929,106.265 46.5,105.5C 45.5,105.5 44.5,105.5 43.5,105.5C 43.5,104.5 43.5,103.5 43.5,102.5C 42.5,102.5 41.5,102.5 40.5,102.5C 40.1667,99.8333 39.8333,97.1667 39.5,94.5 Z"/></g>
<g><path style="opacity:1" fill="#05f74f" d="M 46.5,105.5 C 48.929,106.265 50.2623,107.931 50.5,110.5C 55.2755,111.179 59.9422,112.345 64.5,114C 70.0164,114.817 75.3497,114.651 80.5,113.5C 82.1016,111.926 84.1016,111.259 86.5,111.5C 90.0848,111.708 92.7515,110.375 94.5,107.5C 95.791,107.263 96.791,107.596 97.5,108.5C 96.08,110.709 94.4133,112.709 92.5,114.5C 87.3707,117.337 82.0374,120.003 76.5,122.5C 68.7616,125.157 61.0949,125.157 53.5,122.5C 50.2788,121.387 46.9455,120.387 43.5,119.5C 42.5,118.167 41.5,116.833 40.5,115.5C 41.6888,114.571 43.0222,114.238 44.5,114.5C 44.1156,112.071 43.449,109.737 42.5,107.5C 44.4832,107.843 45.8166,107.176 46.5,105.5 Z"/></g>
<g><path style="opacity:1" fill="#48e974" d="M 94.5,107.5 C 92.7515,110.375 90.0848,111.708 86.5,111.5C 88.8485,109.659 91.5152,108.326 94.5,107.5 Z"/></g>
<g><path style="opacity:1" fill="#dcffe3" d="M 25.5,112.5 C 28.7279,115.306 31.7279,118.306 34.5,121.5C 32.6284,120.489 30.6284,119.655 28.5,119C 27.5877,116.749 26.5877,114.583 25.5,112.5 Z"/></g>
<g><path style="opacity:1" fill="#02d447" d="M 92.5,114.5 C 92.5858,115.496 92.2524,116.329 91.5,117C 95.0228,120.398 96.6895,124.564 96.5,129.5C 91.4723,129.428 86.8056,130.594 82.5,133C 75.5079,133.5 68.5079,133.666 61.5,133.5C 59.4352,133.483 57.4352,133.15 55.5,132.5C 54.6935,131.272 53.6935,130.272 52.5,129.5C 54.4672,129.739 56.3005,129.406 58,128.5C 59.2124,132.345 61.379,133.179 64.5,131C 63.6243,129.415 62.2909,128.415 60.5,128C 63.3715,127.685 66.2048,127.185 69,126.5C 70.7525,127.286 72.5858,127.12 74.5,126C 74.0426,125.586 73.7093,125.086 73.5,124.5C 74.6016,123.824 75.6016,123.158 76.5,122.5C 82.0374,120.003 87.3707,117.337 92.5,114.5 Z"/></g>
<g><path style="opacity:1" fill="#49e176" d="M 39.5,124.5 C 41.7638,125.219 44.0971,125.552 46.5,125.5C 46.5,126.5 46.5,127.5 46.5,128.5C 48.5,128.833 50.5,129.167 52.5,129.5C 53.6935,130.272 54.6935,131.272 55.5,132.5C 49.4028,131.148 44.0694,128.481 39.5,124.5 Z"/></g>
<g><path style="opacity:1" fill="#d4fee8" d="M 110.5,122.5 C 111.183,125.516 112.183,128.516 113.5,131.5C 112.504,131.586 111.671,131.252 111,130.5C 110.83,128.285 110.163,126.285 109,124.5C 108.329,125.252 107.496,125.586 106.5,125.5C 107.436,124.026 108.77,123.026 110.5,122.5 Z"/></g>
<g><path style="opacity:1" fill="#4de17a" d="M 117.5,133.5 C 120.833,133.5 124.167,133.5 127.5,133.5C 124.132,136.046 120.799,136.046 117.5,133.5 Z"/></g>
</svg>
