<?xml version="1.0" encoding="UTF-8"?>
<!DOCTYPE svg PUBLIC "-//W3C//DTD SVG 1.1//EN" "http://www.w3.org/Graphics/SVG/1.1/DTD/svg11.dtd">
<svg xmlns="http://www.w3.org/2000/svg" version="1.1" width="2000px" height="2000px" style="shape-rendering:geometricPrecision; text-rendering:geometricPrecision; image-rendering:optimizeQuality; fill-rule:evenodd; clip-rule:evenodd" xmlns:xlink="http://www.w3.org/1999/xlink">
<g><path style="opacity:0.999" fill="#fd305c" d="M 287.5,-0.5 C 290.5,-0.5 293.5,-0.5 296.5,-0.5C 502.658,25.2278 708.991,50.7278 915.5,76C 918.63,78.128 921.463,80.628 924,83.5C 931.711,92.3732 939.211,101.373 946.5,110.5C 793.494,201.333 640.828,292.667 488.5,384.5C 455.662,384.168 422.996,384.502 390.5,385.5C 390.5,404.5 390.5,423.5 390.5,442.5C 277.833,509.833 165.167,577.167 52.5,644.5C 130.638,429.419 208.971,214.419 287.5,-0.5 Z"/></g>
<g><path style="opacity:1" fill="#0d7af7" d="M 1598.5,209.5 C 1598.54,210.583 1598.87,211.583 1599.5,212.5C 1454.03,261.435 1308.36,309.768 1162.5,357.5C 1155.54,349.2 1148.2,341.2 1140.5,333.5C 1138.93,330.418 1136.76,327.751 1134,325.5C 1133.52,324.552 1133.35,323.552 1133.5,322.5C 1214.48,225.186 1295.48,127.853 1376.5,30.5C 1450.94,89.706 1524.94,149.373 1598.5,209.5 Z"/></g>
<g><path style="opacity:1" fill="#fa315e" d="M 946.5,110.5 C 953.884,117.55 960.551,125.217 966.5,133.5C 965.358,135.433 963.692,136.933 961.5,138C 823.938,219.941 686.604,302.108 549.5,384.5C 529.167,384.5 508.833,384.5 488.5,384.5C 640.828,292.667 793.494,201.333 946.5,110.5 Z"/></g>
<g><path style="opacity:0.999" fill="#f63260" d="M 966.5,133.5 C 981.177,149.512 995.51,165.845 1009.5,182.5C 897.167,249.833 784.833,317.167 672.5,384.5C 631.5,384.5 590.5,384.5 549.5,384.5C 686.604,302.108 823.938,219.941 961.5,138C 963.692,136.933 965.358,135.433 966.5,133.5 Z"/></g>
<g><path style="opacity:0.999" fill="#f03464" d="M 1009.5,182.5 C 1018.84,192.512 1027.84,202.846 1036.5,213.5C 1035.36,215.433 1033.69,216.933 1031.5,218C 938.604,273.274 845.938,328.774 753.5,384.5C 726.5,384.5 699.5,384.5 672.5,384.5C 784.833,317.167 897.167,249.833 1009.5,182.5 Z"/></g>
<g><path style="opacity:1" fill="#0f79f4" d="M 1598.5,209.5 C 1632.76,236.125 1666.42,263.459 1699.5,291.5C 1607.89,322.982 1515.89,353.815 1423.5,384C 1344.5,384.5 1265.5,384.667 1186.5,384.5C 1177.81,376.105 1169.81,367.105 1162.5,357.5C 1308.36,309.768 1454.03,261.435 1599.5,212.5C 1598.87,211.583 1598.54,210.583 1598.5,209.5 Z"/></g>
<g><path style="opacity:0.999" fill="#ea3668" d="M 1036.5,213.5 C 1045.87,223.532 1054.87,233.865 1063.5,244.5C 985.161,290.667 907.161,337.333 829.5,384.5C 804.167,384.5 778.833,384.5 753.5,384.5C 845.938,328.774 938.604,273.274 1031.5,218C 1033.69,216.933 1035.36,215.433 1036.5,213.5 Z"/></g>
<g><path style="opacity:0.999" fill="#e5376c" d="M 1063.5,244.5 C 1072.21,252.88 1080.21,261.88 1087.5,271.5C 1025.33,309.418 962.999,347.085 900.5,384.5C 876.833,384.5 853.167,384.5 829.5,384.5C 907.161,337.333 985.161,290.667 1063.5,244.5 Z"/></g>
<g><path style="opacity:0.999" fill="#e0386f" d="M 1087.5,271.5 C 1093.84,277.843 1099.84,284.509 1105.5,291.5C 1104.73,292.172 1104.07,293.005 1103.5,294C 1052.77,323.689 1002.44,353.856 952.5,384.5C 935.167,384.5 917.833,384.5 900.5,384.5C 962.999,347.085 1025.33,309.418 1087.5,271.5 Z"/></g>
<g><path style="opacity:0.998" fill="#dc3a71" d="M 1105.5,291.5 C 1110.5,297.5 1115.5,303.5 1120.5,309.5C 1078.55,334.137 1036.88,359.137 995.5,384.5C 981.167,384.5 966.833,384.5 952.5,384.5C 1002.44,353.856 1052.77,323.689 1103.5,294C 1104.07,293.005 1104.73,292.172 1105.5,291.5 Z"/></g>
<g><path style="opacity:1" fill="#1376f0" d="M 1699.5,291.5 C 1722.79,309.46 1745.79,327.793 1768.5,346.5C 1768.54,347.583 1768.87,348.583 1769.5,349.5C 1721.7,366.101 1673.7,382.101 1625.5,397.5C 1625.5,393.5 1625.5,389.5 1625.5,385.5C 1479.17,385.5 1332.83,385.5 1186.5,385.5C 1186.5,385.167 1186.5,384.833 1186.5,384.5C 1265.5,384.667 1344.5,384.5 1423.5,384C 1515.89,353.815 1607.89,322.982 1699.5,291.5 Z"/></g>
<g><path style="opacity:0.998" fill="#d73b74" d="M 1120.5,309.5 C 1124.61,314.027 1128.94,318.36 1133.5,322.5C 1133.35,323.552 1133.52,324.552 1134,325.5C 1136.76,327.751 1138.93,330.418 1140.5,333.5C 1112.73,350.559 1084.73,367.392 1056.5,384C 1036.17,384.5 1015.84,384.667 995.5,384.5C 1036.88,359.137 1078.55,334.137 1120.5,309.5 Z"/></g>
<g><path style="opacity:1" fill="#c93a72" d="M 1140.5,333.5 C 1148.2,341.2 1155.54,349.2 1162.5,357.5C 1169.81,367.105 1177.81,376.105 1186.5,384.5C 1186.5,384.833 1186.5,385.167 1186.5,385.5C 921.167,385.5 655.833,385.5 390.5,385.5C 422.996,384.502 455.662,384.168 488.5,384.5C 508.833,384.5 529.167,384.5 549.5,384.5C 590.5,384.5 631.5,384.5 672.5,384.5C 699.5,384.5 726.5,384.5 753.5,384.5C 778.833,384.5 804.167,384.5 829.5,384.5C 853.167,384.5 876.833,384.5 900.5,384.5C 917.833,384.5 935.167,384.5 952.5,384.5C 966.833,384.5 981.167,384.5 995.5,384.5C 1015.84,384.667 1036.17,384.5 1056.5,384C 1084.73,367.392 1112.73,350.559 1140.5,333.5 Z"/></g>
<g><path style="opacity:1" fill="#1c75ec" d="M 1768.5,346.5 C 1795.72,368.271 1822.72,390.271 1849.5,412.5C 1775.24,438.255 1700.57,463.255 1625.5,487.5C 1625.5,457.5 1625.5,427.5 1625.5,397.5C 1673.7,382.101 1721.7,366.101 1769.5,349.5C 1768.87,348.583 1768.54,347.583 1768.5,346.5 Z"/></g>
<g><path style="opacity:1" fill="#000000" d="M 390.5,385.5 C 655.833,385.5 921.167,385.5 1186.5,385.5C 1332.83,385.5 1479.17,385.5 1625.5,385.5C 1625.5,389.5 1625.5,393.5 1625.5,397.5C 1625.5,427.5 1625.5,457.5 1625.5,487.5C 1625.5,505.5 1625.5,523.5 1625.5,541.5C 1625.5,555.833 1625.5,570.167 1625.5,584.5C 1625.5,598.167 1625.5,611.833 1625.5,625.5C 1625.5,639.833 1625.5,654.167 1625.5,668.5C 1625.5,680.167 1625.5,691.833 1625.5,703.5C 1625.5,714.167 1625.5,724.833 1625.5,735.5C 1625.5,745.5 1625.5,755.5 1625.5,765.5C 1625.5,777.5 1625.5,789.5 1625.5,801.5C 1625.5,809.5 1625.5,817.5 1625.5,825.5C 1625.5,840.5 1625.5,855.5 1625.5,870.5C 1625.5,879.833 1625.5,889.167 1625.5,898.5C 1625.5,905.833 1625.5,913.167 1625.5,920.5C 1625.5,938.833 1625.5,957.167 1625.5,975.5C 1625.5,1010.5 1625.5,1045.5 1625.5,1080.5C 1625.5,1099.5 1625.5,1118.5 1625.5,1137.5C 1625.5,1185.17 1625.5,1232.83 1625.5,1280.5C 1625.5,1299.5 1625.5,1318.5 1625.5,1337.5C 1625.5,1375.83 1625.5,1414.17 1625.5,1452.5C 1625.5,1480.83 1625.5,1509.17 1625.5,1537.5C 1625.5,1564.83 1625.5,1592.17 1625.5,1619.5C 1610.5,1619.5 1595.5,1619.5 1580.5,1619.5C 1564.83,1619.5 1549.17,1619.5 1533.5,1619.5C 1512.5,1619.5 1491.5,1619.5 1470.5,1619.5C 1459.83,1619.5 1449.17,1619.5 1438.5,1619.5C 1412.5,1619.5 1386.5,1619.5 1360.5,1619.5C 1349.83,1619.5 1339.17,1619.5 1328.5,1619.5C 1313.5,1619.5 1298.5,1619.5 1283.5,1619.5C 1275.5,1619.5 1267.5,1619.5 1259.5,1619.5C 1247.17,1619.5 1234.83,1619.5 1222.5,1619.5C 1213.83,1619.5 1205.17,1619.5 1196.5,1619.5C 1184.83,1619.5 1173.17,1619.5 1161.5,1619.5C 1151.5,1619.5 1141.5,1619.5 1131.5,1619.5C 1111.17,1619.5 1090.83,1619.5 1070.5,1619.5C 1056.17,1619.5 1041.83,1619.5 1027.5,1619.5C 1019.5,1619.5 1011.5,1619.5 1003.5,1619.5C 998.5,1619.5 993.5,1619.5 988.5,1619.5C 947.167,1619.5 905.833,1619.5 864.5,1619.5C 850.167,1619.5 835.833,1619.5 821.5,1619.5C 783.5,1619.5 745.5,1619.5 707.5,1619.5C 688.5,1619.5 669.5,1619.5 650.5,1619.5C 625.5,1619.5 600.5,1619.5 575.5,1619.5C 529.5,1619.5 483.5,1619.5 437.5,1619.5C 421.833,1619.5 406.167,1619.5 390.5,1619.5C 390.5,1617.83 390.5,1616.17 390.5,1614.5C 390.5,1599.5 390.5,1584.5 390.5,1569.5C 390.5,1552.5 390.5,1535.5 390.5,1518.5C 390.5,1504.17 390.5,1489.83 390.5,1475.5C 390.5,1448.17 390.5,1420.83 390.5,1393.5C 390.5,1364.17 390.5,1334.83 390.5,1305.5C 390.5,1258.17 390.5,1210.83 390.5,1163.5C 390.5,1083.17 390.5,1002.83 390.5,922.5C 390.5,902.833 390.5,883.167 390.5,863.5C 390.5,849.5 390.5,835.5 390.5,821.5C 390.5,808.5 390.5,795.5 390.5,782.5C 390.5,770.5 390.5,758.5 390.5,746.5C 390.5,737.833 390.5,729.167 390.5,720.5C 390.5,710.167 390.5,699.833 390.5,689.5C 390.5,675.167 390.5,660.833 390.5,646.5C 390.5,631.5 390.5,616.5 390.5,601.5C 390.5,588.167 390.5,574.833 390.5,561.5C 390.5,558.833 390.5,556.167 390.5,553.5C 390.5,528.833 390.5,504.167 390.5,479.5C 390.5,467.167 390.5,454.833 390.5,442.5C 390.5,423.5 390.5,404.5 390.5,385.5 Z"/></g>
<g><path style="opacity:1" fill="#2273e8" d="M 1849.5,412.5 C 1866.13,425.126 1882.46,438.126 1898.5,451.5C 1807.52,481.495 1716.52,511.495 1625.5,541.5C 1625.5,523.5 1625.5,505.5 1625.5,487.5C 1700.57,463.255 1775.24,438.255 1849.5,412.5 Z"/></g>
<g><path style="opacity:1" fill="#2871e4" d="M 1898.5,451.5 C 1910.86,461.53 1923.19,471.53 1935.5,481.5C 1832.38,516.205 1729.05,550.539 1625.5,584.5C 1625.5,570.167 1625.5,555.833 1625.5,541.5C 1716.52,511.495 1807.52,481.495 1898.5,451.5 Z"/></g>
<g><path style="opacity:0.999" fill="#fa315e" d="M 390.5,442.5 C 390.5,454.833 390.5,467.167 390.5,479.5C 273.029,549.404 155.696,619.57 38.5,690C 37.552,690.483 36.552,690.649 35.5,690.5C 41.1681,675.162 46.8348,659.828 52.5,644.5C 165.167,577.167 277.833,509.833 390.5,442.5 Z"/></g>
<g><path style="opacity:0.999" fill="#f63360" d="M 390.5,479.5 C 390.5,504.167 390.5,528.833 390.5,553.5C 260.5,630.833 130.5,708.167 0.5,785.5C 12.3634,753.91 24.03,722.244 35.5,690.5C 36.552,690.649 37.552,690.483 38.5,690C 155.696,619.57 273.029,549.404 390.5,479.5 Z"/></g>
<g><path style="opacity:1" fill="#2f6fe0" d="M 1935.5,481.5 C 1949.09,491.46 1962.09,502.127 1974.5,513.5C 1973.18,513.179 1971.85,512.846 1970.5,512.5C 1855.54,550.374 1740.54,588.041 1625.5,625.5C 1625.5,611.833 1625.5,598.167 1625.5,584.5C 1729.05,550.539 1832.38,516.205 1935.5,481.5 Z"/></g>
<g><path style="opacity:1" fill="#346ddc" d="M 1974.5,513.5 C 1983.1,519.425 1991.43,525.759 1999.5,532.5C 1999.5,533.167 1999.5,533.833 1999.5,534.5C 1993.8,540.203 1988.46,546.203 1983.5,552.5C 1982.4,551.402 1981.07,551.235 1979.5,552C 1861.64,591.343 1743.64,630.176 1625.5,668.5C 1625.5,654.167 1625.5,639.833 1625.5,625.5C 1740.54,588.041 1855.54,550.374 1970.5,512.5C 1971.85,512.846 1973.18,513.179 1974.5,513.5 Z"/></g>
<g><path style="opacity:1" fill="#1c7be5" d="M 1999.5,534.5 C 1999.5,544.833 1999.5,555.167 1999.5,565.5C 1998.45,581.66 1997.78,597.994 1997.5,614.5C 1995.22,616.331 1993.39,618.664 1992,621.5C 1923.4,745.089 1854.4,868.422 1785,991.5C 1732.31,1088.22 1679.15,1184.55 1625.5,1280.5C 1625.5,1232.83 1625.5,1185.17 1625.5,1137.5C 1712.75,981.336 1799.75,825.002 1886.5,668.5C 1892.81,660.519 1899.14,652.519 1905.5,644.5C 1918.3,630.244 1930.63,615.577 1942.5,600.5C 1956.16,584.54 1969.82,568.54 1983.5,552.5C 1988.46,546.203 1993.8,540.203 1999.5,534.5 Z"/></g>
<g><path style="opacity:1" fill="#fefefe" d="M 582.5,545.5 C 668.167,545.5 753.833,545.5 839.5,545.5C 839.5,576.833 839.5,608.167 839.5,639.5C 815.833,639.5 792.167,639.5 768.5,639.5C 768.5,747.167 768.5,854.833 768.5,962.5C 792.167,962.5 815.833,962.5 839.5,962.5C 839.5,993.833 839.5,1025.17 839.5,1056.5C 753.833,1056.5 668.167,1056.5 582.5,1056.5C 582.5,1025.17 582.5,993.833 582.5,962.5C 607.167,962.5 631.833,962.5 656.5,962.5C 656.5,854.833 656.5,747.167 656.5,639.5C 631.833,639.5 607.167,639.5 582.5,639.5C 582.5,608.167 582.5,576.833 582.5,545.5 Z"/></g>
<g><path style="opacity:1" fill="#fdfdfd" d="M 1150.5,545.5 C 1188.83,545.5 1227.17,545.5 1265.5,545.5C 1265.67,664.5 1265.5,783.5 1265,902.5C 1262.42,961.177 1236.92,1006.68 1188.5,1039C 1134.76,1066.23 1078.76,1072.23 1020.5,1057C 980.33,1043.49 946.664,1020.49 919.5,988C 943.333,961.5 967.167,935 991,908.5C 1008.34,929.252 1029.51,944.752 1054.5,955C 1073.93,961.171 1093.26,960.837 1112.5,954C 1124.89,948.606 1134.39,940.106 1141,928.5C 1145.72,917.272 1148.72,905.605 1150,893.5C 1150.5,777.5 1150.67,661.5 1150.5,545.5 Z"/></g>
<g><path style="opacity:0.999" fill="#f33463" d="M 390.5,553.5 C 390.5,556.167 390.5,558.833 390.5,561.5C 263.528,637.322 136.528,713.155 9.5,789C 7.30833,790.067 5.64166,791.567 4.5,793.5C 2.83333,792.833 1.16667,792.167 -0.5,791.5C -0.5,790.167 -0.5,788.833 -0.5,787.5C 0.338246,787.158 0.67158,786.492 0.5,785.5C 130.5,708.167 260.5,630.833 390.5,553.5 Z"/></g>
<g><path style="opacity:1" fill="#3a6bd8" d="M 1983.5,552.5 C 1969.82,568.54 1956.16,584.54 1942.5,600.5C 1942.26,599.903 1941.76,599.57 1941,599.5C 1835.78,634.072 1730.62,668.739 1625.5,703.5C 1625.5,691.833 1625.5,680.167 1625.5,668.5C 1743.64,630.176 1861.64,591.343 1979.5,552C 1981.07,551.235 1982.4,551.402 1983.5,552.5 Z"/></g>
<g><path style="opacity:0.999" fill="#ef3465" d="M 390.5,561.5 C 390.5,574.833 390.5,588.167 390.5,601.5C 275.637,670.097 160.637,738.43 45.5,806.5C 31.7727,802.369 18.106,798.035 4.5,793.5C 5.64166,791.567 7.30833,790.067 9.5,789C 136.528,713.155 263.528,637.322 390.5,561.5 Z"/></g>
<g><path style="opacity:0.999" fill="#ea3668" d="M 390.5,601.5 C 390.5,616.5 390.5,631.5 390.5,646.5C 291.902,705.289 193.568,764.289 95.5,823.5C 78.4732,818.603 61.8065,812.936 45.5,806.5C 160.637,738.43 275.637,670.097 390.5,601.5 Z"/></g>
<g><path style="opacity:1" fill="#197ce8" d="M 1997.5,614.5 C 1996.81,633.832 1996.15,653.166 1995.5,672.5C 1939.26,773.255 1882.76,873.922 1826,974.5C 1759.65,1095.88 1692.81,1216.88 1625.5,1337.5C 1625.5,1318.5 1625.5,1299.5 1625.5,1280.5C 1679.15,1184.55 1732.31,1088.22 1785,991.5C 1854.4,868.422 1923.4,745.089 1992,621.5C 1993.39,618.664 1995.22,616.331 1997.5,614.5 Z"/></g>
<g><path style="opacity:1" fill="#4169d4" d="M 1942.5,600.5 C 1930.63,615.577 1918.3,630.244 1905.5,644.5C 1905.26,643.903 1904.76,643.57 1904,643.5C 1811.16,674.279 1718.33,704.945 1625.5,735.5C 1625.5,724.833 1625.5,714.167 1625.5,703.5C 1730.62,668.739 1835.78,634.072 1941,599.5C 1941.76,599.57 1942.26,599.903 1942.5,600.5 Z"/></g>
<g><path style="opacity:1" fill="#4767d0" d="M 1905.5,644.5 C 1899.14,652.519 1892.81,660.519 1886.5,668.5C 1881.17,674.167 1875.83,679.833 1870.5,685.5C 1788.83,712.167 1707.17,738.833 1625.5,765.5C 1625.5,755.5 1625.5,745.5 1625.5,735.5C 1718.33,704.945 1811.16,674.279 1904,643.5C 1904.76,643.57 1905.26,643.903 1905.5,644.5 Z"/></g>
<g><path style="opacity:0.999" fill="#e5376c" d="M 390.5,646.5 C 390.5,660.833 390.5,675.167 390.5,689.5C 309.387,737.896 228.054,786.062 146.5,834C 143.691,835.741 140.691,836.908 137.5,837.5C 123.216,833.405 109.216,828.739 95.5,823.5C 193.568,764.289 291.902,705.289 390.5,646.5 Z"/></g>
<g><path style="opacity:1" fill="#207be1" d="M 1886.5,668.5 C 1799.75,825.002 1712.75,981.336 1625.5,1137.5C 1625.5,1118.5 1625.5,1099.5 1625.5,1080.5C 1681.43,979.487 1737.76,878.653 1794.5,778C 1794.27,777.601 1793.94,777.435 1793.5,777.5C 1795.88,775.116 1797.88,772.45 1799.5,769.5C 1809.54,759.097 1818.87,748.097 1827.5,736.5C 1842.18,719.818 1856.51,702.818 1870.5,685.5C 1875.83,679.833 1881.17,674.167 1886.5,668.5 Z"/></g>
<g><path style="opacity:0.999" fill="#167beb" d="M 1995.5,672.5 C 1994.34,712.841 1993.01,753.174 1991.5,793.5C 1950.19,865.447 1909.35,937.78 1869,1010.5C 1788.06,1158.06 1706.89,1305.39 1625.5,1452.5C 1625.5,1414.17 1625.5,1375.83 1625.5,1337.5C 1692.81,1216.88 1759.65,1095.88 1826,974.5C 1882.76,873.922 1939.26,773.255 1995.5,672.5 Z"/></g>
<g><path style="opacity:1" fill="#4d65cc" d="M 1870.5,685.5 C 1856.51,702.818 1842.18,719.818 1827.5,736.5C 1827.44,735.957 1827.11,735.624 1826.5,735.5C 1759.61,757.907 1692.61,779.907 1625.5,801.5C 1625.5,789.5 1625.5,777.5 1625.5,765.5C 1707.17,738.833 1788.83,712.167 1870.5,685.5 Z"/></g>
<g><path style="opacity:0.999" fill="#e0386f" d="M 390.5,689.5 C 390.5,699.833 390.5,710.167 390.5,720.5C 318.128,764.019 245.461,807.019 172.5,849.5C 160.472,846.269 148.805,842.269 137.5,837.5C 140.691,836.908 143.691,835.741 146.5,834C 228.054,786.062 309.387,737.896 390.5,689.5 Z"/></g>
<g><path style="opacity:0.999" fill="#dc3a71" d="M 390.5,720.5 C 390.5,729.167 390.5,737.833 390.5,746.5C 326.828,783.841 263.162,821.175 199.5,858.5C 197.579,857.637 195.579,856.971 193.5,856.5C 186.216,854.739 179.216,852.405 172.5,849.5C 245.461,807.019 318.128,764.019 390.5,720.5 Z"/></g>
<g><path style="opacity:1" fill="#5464c8" d="M 1827.5,736.5 C 1818.87,748.097 1809.54,759.097 1799.5,769.5C 1799.26,768.903 1798.76,768.57 1798,768.5C 1740.44,787.411 1682.94,806.411 1625.5,825.5C 1625.5,817.5 1625.5,809.5 1625.5,801.5C 1692.61,779.907 1759.61,757.907 1826.5,735.5C 1827.11,735.624 1827.44,735.957 1827.5,736.5 Z"/></g>
<g><path style="opacity:1" fill="#d73b74" d="M 390.5,746.5 C 390.5,758.5 390.5,770.5 390.5,782.5C 339.798,812.182 289.131,841.848 238.5,871.5C 225.426,867.364 212.426,863.031 199.5,858.5C 263.162,821.175 326.828,783.841 390.5,746.5 Z"/></g>
<g><path style="opacity:1" fill="#5c61c3" d="M 1799.5,769.5 C 1797.88,772.45 1795.88,775.116 1793.5,777.5C 1778.21,796.128 1762.54,814.461 1746.5,832.5C 1746.26,831.903 1745.76,831.57 1745,831.5C 1705.3,845.01 1665.47,858.01 1625.5,870.5C 1625.5,855.5 1625.5,840.5 1625.5,825.5C 1682.94,806.411 1740.44,787.411 1798,768.5C 1798.76,768.57 1799.26,768.903 1799.5,769.5 Z"/></g>
<g><path style="opacity:1" fill="#237bde" d="M 1793.5,777.5 C 1793.94,777.435 1794.27,777.601 1794.5,778C 1737.76,878.653 1681.43,979.487 1625.5,1080.5C 1625.5,1045.5 1625.5,1010.5 1625.5,975.5C 1646.49,950.873 1667.49,926.207 1688.5,901.5C 1697.14,891.192 1705.8,880.858 1714.5,870.5C 1725.51,858.151 1736.18,845.485 1746.5,832.5C 1762.54,814.461 1778.21,796.128 1793.5,777.5 Z"/></g>
<g><path style="opacity:1" fill="#d13d78" d="M 390.5,782.5 C 390.5,795.5 390.5,808.5 390.5,821.5C 354.646,842.505 318.646,863.339 282.5,884C 281.402,884.77 281.402,885.603 282.5,886.5C 279.828,885.499 277.162,884.499 274.5,883.5C 262.421,879.696 250.421,875.696 238.5,871.5C 289.131,841.848 339.798,812.182 390.5,782.5 Z"/></g>
<g><path style="opacity:0.999" fill="#137bee" d="M 1991.5,793.5 C 1990.82,823.185 1989.82,852.851 1988.5,882.5C 1965.36,923.438 1942.19,964.438 1919,1005.5C 1821.7,1183.25 1723.87,1360.59 1625.5,1537.5C 1625.5,1509.17 1625.5,1480.83 1625.5,1452.5C 1706.89,1305.39 1788.06,1158.06 1869,1010.5C 1909.35,937.78 1950.19,865.447 1991.5,793.5 Z"/></g>
<g><path style="opacity:1" fill="#665ebc" d="M 1746.5,832.5 C 1736.18,845.485 1725.51,858.151 1714.5,870.5C 1714.44,869.957 1714.11,869.624 1713.5,869.5C 1684.28,879.574 1654.95,889.24 1625.5,898.5C 1625.5,889.167 1625.5,879.833 1625.5,870.5C 1665.47,858.01 1705.3,845.01 1745,831.5C 1745.76,831.57 1746.26,831.903 1746.5,832.5 Z"/></g>
<g><path style="opacity:1" fill="#ca3f7c" d="M 390.5,821.5 C 390.5,835.5 390.5,849.5 390.5,863.5C 369.059,875.39 347.725,887.557 326.5,900C 327.056,900.383 327.389,900.883 327.5,901.5C 326.167,901.167 324.833,900.833 323.5,900.5C 320.833,899.5 318.167,898.5 315.5,897.5C 312.167,896.5 308.833,895.5 305.5,894.5C 300.304,892.435 294.97,890.768 289.5,889.5C 287.321,888.323 284.987,887.323 282.5,886.5C 281.402,885.603 281.402,884.77 282.5,884C 318.646,863.339 354.646,842.505 390.5,821.5 Z"/></g>
<g><path style="opacity:0.998" fill="#f87912" d="M 193.5,856.5 C 195.579,856.971 197.579,857.637 199.5,858.5C 212.426,863.031 225.426,867.364 238.5,871.5C 250.421,875.696 262.421,879.696 274.5,883.5C 274.5,1048.17 274.5,1212.83 274.5,1377.5C 189.976,1310.74 105.642,1243.74 21.5,1176.5C 79.3671,1070.1 136.7,963.431 193.5,856.5 Z"/></g>
<g><path style="opacity:1" fill="#c44180" d="M 390.5,863.5 C 390.5,883.167 390.5,902.833 390.5,922.5C 387.779,922.037 385.112,921.371 382.5,920.5C 378.579,918.971 374.579,917.637 370.5,916.5C 365.304,914.435 359.97,912.768 354.5,911.5C 349.571,909.519 344.571,907.519 339.5,905.5C 336.888,904.629 334.221,903.963 331.5,903.5C 330.329,902.655 328.995,901.989 327.5,901.5C 327.389,900.883 327.056,900.383 326.5,900C 347.725,887.557 369.059,875.39 390.5,863.5 Z"/></g>
<g><path style="opacity:1" fill="#6d5cb8" d="M 1714.5,870.5 C 1705.8,880.858 1697.14,891.192 1688.5,901.5C 1688.26,900.903 1687.76,900.57 1687,900.5C 1666.57,907.475 1646.07,914.142 1625.5,920.5C 1625.5,913.167 1625.5,905.833 1625.5,898.5C 1654.95,889.24 1684.28,879.574 1713.5,869.5C 1714.11,869.624 1714.44,869.957 1714.5,870.5 Z"/></g>
<g><path style="opacity:0.999" fill="#107bf1" d="M 1988.5,882.5 C 1985.79,972.832 1983.12,1063.17 1980.5,1153.5C 1879.27,1334.96 1778.77,1516.96 1679,1699.5C 1653.22,1744.73 1627.72,1790.06 1602.5,1835.5C 1541.48,1860.73 1480.15,1885.4 1418.5,1909.5C 1457.06,1840.73 1495.89,1772.06 1535,1703.5C 1550.45,1675.61 1565.61,1647.61 1580.5,1619.5C 1595.5,1619.5 1610.5,1619.5 1625.5,1619.5C 1625.5,1592.17 1625.5,1564.83 1625.5,1537.5C 1723.87,1360.59 1821.7,1183.25 1919,1005.5C 1942.19,964.438 1965.36,923.438 1988.5,882.5 Z"/></g>
<g><path style="opacity:0.999" fill="#f07919" d="M 274.5,883.5 C 277.162,884.499 279.828,885.499 282.5,886.5C 284.987,887.323 287.321,888.323 289.5,889.5C 291.046,1055.9 290.713,1222.24 288.5,1388.5C 283.833,1384.83 279.167,1381.17 274.5,1377.5C 274.5,1212.83 274.5,1048.17 274.5,883.5 Z"/></g>
<g><path style="opacity:0.999" fill="#ea791e" d="M 289.5,889.5 C 294.97,890.768 300.304,892.435 305.5,894.5C 305.5,1063.5 305.5,1232.5 305.5,1401.5C 299.549,1397.55 293.882,1393.22 288.5,1388.5C 290.713,1222.24 291.046,1055.9 289.5,889.5 Z"/></g>
<g><path style="opacity:0.999" fill="#e57923" d="M 305.5,894.5 C 308.833,895.5 312.167,896.5 315.5,897.5C 315.5,1067.5 315.5,1237.5 315.5,1407.5C 315.672,1408.49 315.338,1409.16 314.5,1409.5C 311.5,1406.83 308.5,1404.17 305.5,1401.5C 305.5,1232.5 305.5,1063.5 305.5,894.5 Z"/></g>
<g><path style="opacity:1" fill="#e27927" d="M 315.5,897.5 C 318.167,898.5 320.833,899.5 323.5,900.5C 324.382,1060.5 324.382,1220.5 323.5,1380.5C 321.591,1389.82 318.924,1398.82 315.5,1407.5C 315.5,1237.5 315.5,1067.5 315.5,897.5 Z"/></g>
<g><path style="opacity:1" fill="#de792a" d="M 323.5,900.5 C 324.833,900.833 326.167,901.167 327.5,901.5C 328.995,901.989 330.329,902.655 331.5,903.5C 332.815,1053.83 332.815,1204.17 331.5,1354.5C 329.434,1363.45 326.767,1372.12 323.5,1380.5C 324.382,1220.5 324.382,1060.5 323.5,900.5 Z"/></g>
<g><path style="opacity:1" fill="#db792d" d="M 331.5,903.5 C 334.221,903.963 336.888,904.629 339.5,905.5C 339.5,1046.5 339.5,1187.5 339.5,1328.5C 339.037,1331.22 338.371,1333.89 337.5,1336.5C 335.669,1342.66 333.669,1348.66 331.5,1354.5C 332.815,1204.17 332.815,1053.83 331.5,903.5 Z"/></g>
<g><path style="opacity:1" fill="#d77930" d="M 339.5,905.5 C 344.571,907.519 349.571,909.519 354.5,911.5C 354.883,1033.84 354.883,1156.17 354.5,1278.5C 350.102,1295.44 345.102,1312.11 339.5,1328.5C 339.5,1187.5 339.5,1046.5 339.5,905.5 Z"/></g>
<g><path style="opacity:1" fill="#745ab3" d="M 1688.5,901.5 C 1667.49,926.207 1646.49,950.873 1625.5,975.5C 1625.5,957.167 1625.5,938.833 1625.5,920.5C 1646.07,914.142 1666.57,907.475 1687,900.5C 1687.76,900.57 1688.26,900.903 1688.5,901.5 Z"/></g>
<g><path style="opacity:1" fill="#d17936" d="M 354.5,911.5 C 359.97,912.768 365.304,914.435 370.5,916.5C 370.5,1019.83 370.5,1123.17 370.5,1226.5C 365.739,1244.11 360.406,1261.44 354.5,1278.5C 354.883,1156.17 354.883,1033.84 354.5,911.5 Z"/></g>
<g><path style="opacity:1" fill="#cb793c" d="M 370.5,916.5 C 374.579,917.637 378.579,918.971 382.5,920.5C 383.277,1008.16 383.61,1095.83 383.5,1183.5C 379.739,1198.11 375.406,1212.44 370.5,1226.5C 370.5,1123.17 370.5,1019.83 370.5,916.5 Z"/></g>
<g><path style="opacity:1" fill="#c8793f" d="M 382.5,920.5 C 385.112,921.371 387.779,922.037 390.5,922.5C 390.5,1002.83 390.5,1083.17 390.5,1163.5C 388.167,1170.17 385.833,1176.83 383.5,1183.5C 383.61,1095.83 383.277,1008.16 382.5,920.5 Z"/></g>
<g><path style="opacity:0.999" fill="#0d7bf4" d="M 1980.5,1153.5 C 1979.29,1180.15 1978.29,1206.81 1977.5,1233.5C 1890.44,1390.61 1803.61,1547.94 1717,1705.5C 1696.5,1741.33 1676,1777.17 1655.5,1813C 1656.09,1813.46 1656.76,1813.63 1657.5,1813.5C 1639.55,1821.6 1621.22,1828.93 1602.5,1835.5C 1627.72,1790.06 1653.22,1744.73 1679,1699.5C 1778.77,1516.96 1879.27,1334.96 1980.5,1153.5 Z"/></g>
<g><path style="opacity:0.997" fill="#0a7bf6" d="M 1977.5,1233.5 C 1972.92,1386.21 1967.76,1538.87 1962,1691.5C 1860.65,1732.59 1759.15,1773.26 1657.5,1813.5C 1656.76,1813.63 1656.09,1813.46 1655.5,1813C 1676,1777.17 1696.5,1741.33 1717,1705.5C 1803.61,1547.94 1890.44,1390.61 1977.5,1233.5 Z"/></g>
<g><path style="opacity:1" fill="#ac498f" d="M 390.5,1163.5 C 390.5,1210.83 390.5,1258.17 390.5,1305.5C 372.97,1316.1 355.303,1326.43 337.5,1336.5C 338.371,1333.89 339.037,1331.22 339.5,1328.5C 345.102,1312.11 350.102,1295.44 354.5,1278.5C 360.406,1261.44 365.739,1244.11 370.5,1226.5C 375.406,1212.44 379.739,1198.11 383.5,1183.5C 385.833,1176.83 388.167,1170.17 390.5,1163.5 Z"/></g>
<g><path style="opacity:1" fill="#a64b94" d="M 390.5,1305.5 C 390.5,1334.83 390.5,1364.17 390.5,1393.5C 362.048,1410.64 333.381,1427.3 304.5,1443.5C 308.036,1432.23 311.369,1420.89 314.5,1409.5C 315.338,1409.16 315.672,1408.49 315.5,1407.5C 318.924,1398.82 321.591,1389.82 323.5,1380.5C 326.767,1372.12 329.434,1363.45 331.5,1354.5C 333.669,1348.66 335.669,1342.66 337.5,1336.5C 355.303,1326.43 372.97,1316.1 390.5,1305.5 Z"/></g>
<g><path style="opacity:1" fill="#717171" d="M 505.5,1388.5 C 659.666,1387.5 813.999,1387.17 968.5,1387.5C 968.831,1413.67 968.498,1439.67 967.5,1465.5C 967.5,1439.83 967.5,1414.17 967.5,1388.5C 813.5,1388.5 659.5,1388.5 505.5,1388.5 Z"/></g>
<g><path style="opacity:1" fill="#fefefe" d="M 505.5,1388.5 C 659.5,1388.5 813.5,1388.5 967.5,1388.5C 967.5,1414.17 967.5,1439.83 967.5,1465.5C 813.5,1465.5 659.5,1465.5 505.5,1465.5C 505.5,1439.83 505.5,1414.17 505.5,1388.5 Z"/></g>
<g><path style="opacity:0.996" fill="#9f4d98" d="M 390.5,1393.5 C 390.5,1420.83 390.5,1448.17 390.5,1475.5C 352.304,1498.43 313.971,1521.1 275.5,1543.5C 284.354,1509.94 294.02,1476.6 304.5,1443.5C 333.381,1427.3 362.048,1410.64 390.5,1393.5 Z"/></g>
<g><path style="opacity:0.997" fill="#9a4e9b" d="M 390.5,1475.5 C 390.5,1489.83 390.5,1504.17 390.5,1518.5C 346.864,1543.65 303.531,1569.32 260.5,1595.5C 264.899,1577.89 269.899,1560.55 275.5,1543.5C 313.971,1521.1 352.304,1498.43 390.5,1475.5 Z"/></g>
<g><path style="opacity:0.997" fill="#974f9d" d="M 390.5,1518.5 C 390.5,1535.5 390.5,1552.5 390.5,1569.5C 341.474,1598.1 292.641,1627.1 244,1656.5C 243.601,1656.27 243.435,1655.94 243.5,1655.5C 248.565,1635.23 254.231,1615.23 260.5,1595.5C 303.531,1569.32 346.864,1543.65 390.5,1518.5 Z"/></g>
<g><path style="opacity:0.998" fill="#93519f" d="M 390.5,1569.5 C 390.5,1584.5 390.5,1599.5 390.5,1614.5C 336.001,1646.58 281.668,1678.91 227.5,1711.5C 232.261,1692.56 237.595,1673.9 243.5,1655.5C 243.435,1655.94 243.601,1656.27 244,1656.5C 292.641,1627.1 341.474,1598.1 390.5,1569.5 Z"/></g>
<g><path style="opacity:0.999" fill="#9052a1" d="M 390.5,1614.5 C 390.5,1616.17 390.5,1617.83 390.5,1619.5C 406.167,1619.5 421.833,1619.5 437.5,1619.5C 363.867,1664.32 289.867,1708.66 215.5,1752.5C 219.131,1738.62 223.131,1724.95 227.5,1711.5C 281.668,1678.91 336.001,1646.58 390.5,1614.5 Z"/></g>
<g><path style="opacity:0.999" fill="#8c53a4" d="M 437.5,1619.5 C 483.5,1619.5 529.5,1619.5 575.5,1619.5C 446.451,1697.2 317.117,1774.53 187.5,1851.5C 196.433,1818.37 205.767,1785.37 215.5,1752.5C 289.867,1708.66 363.867,1664.32 437.5,1619.5 Z"/></g>
<g><path style="opacity:0.999" fill="#8754a7" d="M 575.5,1619.5 C 600.5,1619.5 625.5,1619.5 650.5,1619.5C 491.118,1715.53 331.451,1811.2 171.5,1906.5C 176.681,1888.11 182.015,1869.77 187.5,1851.5C 317.117,1774.53 446.451,1697.2 575.5,1619.5 Z"/></g>
<g><path style="opacity:0.999" fill="#8455a9" d="M 650.5,1619.5 C 669.5,1619.5 688.5,1619.5 707.5,1619.5C 525.671,1729.25 343.338,1838.25 160.5,1946.5C 163.855,1933.08 167.522,1919.75 171.5,1906.5C 331.451,1811.2 491.118,1715.53 650.5,1619.5 Z"/></g>
<g><path style="opacity:0.997" fill="#8156ab" d="M 707.5,1619.5 C 745.5,1619.5 783.5,1619.5 821.5,1619.5C 694.563,1695.64 567.563,1771.81 440.5,1848C 441.094,1848.46 441.761,1848.63 442.5,1848.5C 348.598,1882.8 254.598,1917.14 160.5,1951.5C 159.212,1949.7 159.212,1948.03 160.5,1946.5C 343.338,1838.25 525.671,1729.25 707.5,1619.5 Z"/></g>
<g><path style="opacity:0.998" fill="#7d57ad" d="M 821.5,1619.5 C 835.833,1619.5 850.167,1619.5 864.5,1619.5C 759.895,1682.81 654.895,1745.64 549.5,1808C 550.056,1808.38 550.389,1808.88 550.5,1809.5C 514.657,1822.89 478.657,1835.89 442.5,1848.5C 441.761,1848.63 441.094,1848.46 440.5,1848C 567.563,1771.81 694.563,1695.64 821.5,1619.5 Z"/></g>
<g><path style="opacity:0.996" fill="#7958b0" d="M 864.5,1619.5 C 905.833,1619.5 947.167,1619.5 988.5,1619.5C 979.968,1632.72 971.301,1645.89 962.5,1659C 951.633,1662.94 940.967,1667.11 930.5,1671.5C 908.951,1678.79 887.618,1686.46 866.5,1694.5C 834.528,1705.6 802.861,1717.27 771.5,1729.5C 697.833,1756.17 624.167,1782.83 550.5,1809.5C 550.389,1808.88 550.056,1808.38 549.5,1808C 654.895,1745.64 759.895,1682.81 864.5,1619.5 Z"/></g>
<g><path style="opacity:0.999" fill="#477abc" d="M 988.5,1619.5 C 993.5,1619.5 998.5,1619.5 1003.5,1619.5C 969.177,1683.49 933.844,1746.82 897.5,1809.5C 886.648,1803.58 876.315,1796.91 866.5,1789.5C 887.889,1750.39 909.555,1711.39 931.5,1672.5C 931.376,1671.89 931.043,1671.56 930.5,1671.5C 940.967,1667.11 951.633,1662.94 962.5,1659C 971.301,1645.89 979.968,1632.72 988.5,1619.5 Z"/></g>
<g><path style="opacity:0.999" fill="#437ac0" d="M 1003.5,1619.5 C 1011.5,1619.5 1019.5,1619.5 1027.5,1619.5C 990.999,1687.29 953.332,1754.29 914.5,1820.5C 908.559,1817.22 902.892,1813.55 897.5,1809.5C 933.844,1746.82 969.177,1683.49 1003.5,1619.5 Z"/></g>
<g><path style="opacity:0.999" fill="#3d7ac5" d="M 1027.5,1619.5 C 1041.83,1619.5 1056.17,1619.5 1070.5,1619.5C 1030.01,1693.82 989.007,1767.82 947.5,1841.5C 936.227,1834.89 925.227,1827.89 914.5,1820.5C 953.332,1754.29 990.999,1687.29 1027.5,1619.5 Z"/></g>
<g><path style="opacity:0.999" fill="#377bcb" d="M 1070.5,1619.5 C 1090.83,1619.5 1111.17,1619.5 1131.5,1619.5C 1086.99,1700.85 1041.82,1781.85 996,1862.5C 994.609,1865.34 992.776,1867.67 990.5,1869.5C 975.618,1860.9 961.285,1851.57 947.5,1841.5C 989.007,1767.82 1030.01,1693.82 1070.5,1619.5 Z"/></g>
<g><path style="opacity:0.999" fill="#327bcf" d="M 1131.5,1619.5 C 1141.5,1619.5 1151.5,1619.5 1161.5,1619.5C 1112.83,1708.18 1063.16,1796.18 1012.5,1883.5C 1004.88,1879.19 997.543,1874.53 990.5,1869.5C 992.776,1867.67 994.609,1865.34 996,1862.5C 1041.82,1781.85 1086.99,1700.85 1131.5,1619.5 Z"/></g>
<g><path style="opacity:0.999" fill="#2f7bd2" d="M 1161.5,1619.5 C 1173.17,1619.5 1184.83,1619.5 1196.5,1619.5C 1145.28,1712.93 1093.28,1805.93 1040.5,1898.5C 1039.68,1899.39 1038.68,1899.72 1037.5,1899.5C 1028.99,1894.41 1020.66,1889.08 1012.5,1883.5C 1063.16,1796.18 1112.83,1708.18 1161.5,1619.5 Z"/></g>
<g><path style="opacity:0.999" fill="#2c7bd5" d="M 1196.5,1619.5 C 1205.17,1619.5 1213.83,1619.5 1222.5,1619.5C 1168.24,1717.69 1113.24,1815.35 1057.5,1912.5C 1050.46,1908.65 1043.79,1904.32 1037.5,1899.5C 1038.68,1899.72 1039.68,1899.39 1040.5,1898.5C 1093.28,1805.93 1145.28,1712.93 1196.5,1619.5 Z"/></g>
<g><path style="opacity:0.999" fill="#297bd8" d="M 1222.5,1619.5 C 1234.83,1619.5 1247.17,1619.5 1259.5,1619.5C 1244.61,1647.61 1229.45,1675.61 1214,1703.5C 1170.94,1779.06 1128.11,1854.72 1085.5,1930.5C 1075.88,1924.86 1066.54,1918.86 1057.5,1912.5C 1113.24,1815.35 1168.24,1717.69 1222.5,1619.5 Z"/></g>
<g><path style="opacity:0.999" fill="#267bdb" d="M 1259.5,1619.5 C 1267.5,1619.5 1275.5,1619.5 1283.5,1619.5C 1223.97,1727.35 1163.63,1834.68 1102.5,1941.5C 1096.63,1938.07 1090.96,1934.4 1085.5,1930.5C 1128.11,1854.72 1170.94,1779.06 1214,1703.5C 1229.45,1675.61 1244.61,1647.61 1259.5,1619.5 Z"/></g>
<g><path style="opacity:0.999" fill="#237bde" d="M 1283.5,1619.5 C 1298.5,1619.5 1313.5,1619.5 1328.5,1619.5C 1265.43,1734.65 1201.1,1848.98 1135.5,1962.5C 1124.29,1955.74 1113.29,1948.74 1102.5,1941.5C 1163.63,1834.68 1223.97,1727.35 1283.5,1619.5 Z"/></g>
<g><path style="opacity:1" fill="#207be1" d="M 1328.5,1619.5 C 1339.17,1619.5 1349.83,1619.5 1360.5,1619.5C 1293.99,1739.18 1226.99,1858.52 1159.5,1977.5C 1151.16,1973 1143.16,1968 1135.5,1962.5C 1201.1,1848.98 1265.43,1734.65 1328.5,1619.5 Z"/></g>
<g><path style="opacity:0.999" fill="#1d7be5" d="M 1360.5,1619.5 C 1386.5,1619.5 1412.5,1619.5 1438.5,1619.5C 1424.59,1645.93 1410.42,1672.26 1396,1698.5C 1342.5,1792.83 1289,1887.17 1235.5,1981.5C 1235.62,1982.11 1235.96,1982.44 1236.5,1982.5C 1223.17,1988.17 1209.83,1993.83 1196.5,1999.5C 1194.83,1999.5 1193.17,1999.5 1191.5,1999.5C 1180.83,1992.17 1170.17,1984.83 1159.5,1977.5C 1226.99,1858.52 1293.99,1739.18 1360.5,1619.5 Z"/></g>
<g><path style="opacity:0.999" fill="#197be8" d="M 1438.5,1619.5 C 1449.17,1619.5 1459.83,1619.5 1470.5,1619.5C 1406.4,1735.54 1341.4,1851.04 1275.5,1966C 1275.73,1966.4 1276.06,1966.57 1276.5,1966.5C 1263.47,1972.4 1250.14,1977.74 1236.5,1982.5C 1235.96,1982.44 1235.62,1982.11 1235.5,1981.5C 1289,1887.17 1342.5,1792.83 1396,1698.5C 1410.42,1672.26 1424.59,1645.93 1438.5,1619.5 Z"/></g>
<g><path style="opacity:0.999" fill="#167beb" d="M 1470.5,1619.5 C 1491.5,1619.5 1512.5,1619.5 1533.5,1619.5C 1475.48,1724.38 1416.81,1828.88 1357.5,1933C 1357.73,1933.4 1358.06,1933.57 1358.5,1933.5C 1331.46,1945.01 1304.13,1956.01 1276.5,1966.5C 1276.06,1966.57 1275.73,1966.4 1275.5,1966C 1341.4,1851.04 1406.4,1735.54 1470.5,1619.5 Z"/></g>
<g><path style="opacity:0.999" fill="#137bee" d="M 1533.5,1619.5 C 1549.17,1619.5 1564.83,1619.5 1580.5,1619.5C 1565.61,1647.61 1550.45,1675.61 1535,1703.5C 1495.89,1772.06 1457.06,1840.73 1418.5,1909.5C 1398.8,1918.07 1378.8,1926.07 1358.5,1933.5C 1358.06,1933.57 1357.73,1933.4 1357.5,1933C 1416.81,1828.88 1475.48,1724.38 1533.5,1619.5 Z"/></g>
<g><path style="opacity:0.997" fill="#4e7ab4" d="M 930.5,1671.5 C 931.043,1671.56 931.376,1671.89 931.5,1672.5C 909.555,1711.39 887.889,1750.39 866.5,1789.5C 853.488,1782 840.821,1774 828.5,1765.5C 841.476,1742.22 854.476,1718.89 867.5,1695.5C 867.376,1694.89 867.043,1694.56 866.5,1694.5C 887.618,1686.46 908.951,1678.79 930.5,1671.5 Z"/></g>
<g><path style="opacity:0.995" fill="#557aae" d="M 866.5,1694.5 C 867.043,1694.56 867.376,1694.89 867.5,1695.5C 854.476,1718.89 841.476,1742.22 828.5,1765.5C 809.5,1753.5 790.5,1741.5 771.5,1729.5C 802.861,1717.27 834.528,1705.6 866.5,1694.5 Z"/></g>
</svg>
