<?xml version="1.0" encoding="UTF-8"?>
<!DOCTYPE svg PUBLIC "-//W3C//DTD SVG 1.1//EN" "http://www.w3.org/Graphics/SVG/1.1/DTD/svg11.dtd">
<svg xmlns="http://www.w3.org/2000/svg" version="1.1" width="460px" height="460px" style="shape-rendering:geometricPrecision; text-rendering:geometricPrecision; image-rendering:optimizeQuality; fill-rule:evenodd; clip-rule:evenodd" xmlns:xlink="http://www.w3.org/1999/xlink">
<g><path style="opacity:0.997" fill="#db524a" d="M 206.5,-0.5 C 221.167,-0.5 235.833,-0.5 250.5,-0.5C 270.146,1.49485 289.146,6.16151 307.5,13.5C 307.5,32.1667 307.5,50.8333 307.5,69.5C 253.5,69.5 199.5,69.5 145.5,69.5C 140.739,120.443 136.905,171.443 134,222.5C 141.614,226.721 149.114,231.054 156.5,235.5C 184.295,227.444 212.295,226.61 240.5,233C 260.251,238.748 272.417,251.582 277,271.5C 279.484,287.949 277.151,303.616 270,318.5C 260.969,331.77 248.469,339.604 232.5,342C 195.547,347.84 160.547,342.007 127.5,324.5C 126.184,339.897 126.184,355.23 127.5,370.5C 127.831,392.34 127.497,414.006 126.5,435.5C 61.7745,402.16 20.9412,349.827 4,278.5C 2.31019,269.389 0.810188,260.389 -0.5,251.5C -0.5,236.5 -0.5,221.5 -0.5,206.5C 8.82608,134.993 42.8261,78.4927 101.5,37C 133.717,16.5511 168.717,4.05115 206.5,-0.5 Z"/></g>
<g><path style="opacity:0.996" fill="#25a162" d="M 307.5,13.5 C 348.557,27.7713 382.724,51.7713 410,85.5C 437.823,121.492 454.323,162.159 459.5,207.5C 459.5,222.5 459.5,237.5 459.5,252.5C 450.169,324.019 416.169,380.519 357.5,422C 325.293,442.442 290.293,454.942 252.5,459.5C 237.5,459.5 222.5,459.5 207.5,459.5C 179.015,456.536 152.015,448.536 126.5,435.5C 127.497,414.006 127.831,392.34 127.5,370.5C 145.778,379.423 165.111,384.589 185.5,386C 209.112,387.883 232.445,386.217 255.5,381C 298.678,369.179 323.178,341.012 329,296.5C 333.002,269.157 327.335,244.157 312,221.5C 296.618,204.057 277.451,193.223 254.5,189C 230.32,185.078 206.32,185.911 182.5,191.5C 185.055,165.517 187.388,139.517 189.5,113.5C 228.833,113.5 268.167,113.5 307.5,113.5C 307.5,98.8333 307.5,84.1667 307.5,69.5C 307.5,50.8333 307.5,32.1667 307.5,13.5 Z"/></g>
<g><path style="opacity:1" fill="#fefefe" d="M 307.5,69.5 C 307.5,84.1667 307.5,98.8333 307.5,113.5C 268.167,113.5 228.833,113.5 189.5,113.5C 187.388,139.517 185.055,165.517 182.5,191.5C 206.32,185.911 230.32,185.078 254.5,189C 277.451,193.223 296.618,204.057 312,221.5C 327.335,244.157 333.002,269.157 329,296.5C 323.178,341.012 298.678,369.179 255.5,381C 232.445,386.217 209.112,387.883 185.5,386C 165.111,384.589 145.778,379.423 127.5,370.5C 126.184,355.23 126.184,339.897 127.5,324.5C 160.547,342.007 195.547,347.84 232.5,342C 248.469,339.604 260.969,331.77 270,318.5C 277.151,303.616 279.484,287.949 277,271.5C 272.417,251.582 260.251,238.748 240.5,233C 212.295,226.61 184.295,227.444 156.5,235.5C 149.114,231.054 141.614,226.721 134,222.5C 136.905,171.443 140.739,120.443 145.5,69.5C 199.5,69.5 253.5,69.5 307.5,69.5 Z"/></g>
</svg>
