<?xml version="1.0" encoding="UTF-8"?>
<!DOCTYPE svg PUBLIC "-//W3C//DTD SVG 1.1//EN" "http://www.w3.org/Graphics/SVG/1.1/DTD/svg11.dtd">
<svg xmlns="http://www.w3.org/2000/svg" version="1.1" width="143px" height="183px" style="shape-rendering:geometricPrecision; text-rendering:geometricPrecision; image-rendering:optimizeQuality; fill-rule:evenodd; clip-rule:evenodd" xmlns:xlink="http://www.w3.org/1999/xlink">
<g><path style="opacity:1" fill="#f5f5f4" d="M 44.5,-0.5 C 48.1667,-0.5 51.8333,-0.5 55.5,-0.5C 66.6018,4.01664 71.9351,12.35 71.5,24.5C 70.5139,26.4261 69.5139,28.4261 68.5,30.5C 67.0413,30.4326 65.7079,30.7659 64.5,31.5C 54.7283,32.7944 45.7283,30.7944 37.5,25.5C 36.1667,24.5 34.8333,23.5 33.5,22.5C 32.8333,21.1667 31.8333,20.1667 30.5,19.5C 30.4013,16.7628 30.7347,14.0961 31.5,11.5C 33.9641,5.44106 38.2974,1.44106 44.5,-0.5 Z"/></g>
<g><path style="opacity:1" fill="#fe8500" d="M 31.5,11.5 C 30.7347,14.0961 30.4013,16.7628 30.5,19.5C 28.321,19.84 26.4877,20.84 25,22.5C 15.0745,38.1684 16.9079,52.335 30.5,65C 46.2782,74.6485 60.2782,72.4819 72.5,58.5C 75.2789,50.3847 76.1122,42.0514 75,33.5C 73.2776,30.7209 72.1109,27.7209 71.5,24.5C 78.102,33.2378 80.102,42.9044 77.5,53.5C 67.9686,77.072 51.6353,83.2387 28.5,72C 24.6438,68.643 20.6438,65.4763 16.5,62.5C 11.9855,54.0576 10.1522,45.0576 11,35.5C 13.1883,29.1802 16.3549,23.5135 20.5,18.5C 23.3608,14.9859 27.0275,12.6525 31.5,11.5 Z"/></g>
<g><path style="opacity:1" fill="#fe9601" d="M 30.5,19.5 C 31.8333,20.1667 32.8333,21.1667 33.5,22.5C 28.2752,25.1344 25.1085,29.801 24,36.5C 23.021,50.7224 29.1876,60.2224 42.5,65C 56.924,68.3606 66.7573,62.8606 72,48.5C 72.8257,43.4107 72.4924,38.4107 71,33.5C 70.6232,32.0577 69.7899,31.0577 68.5,30.5C 69.5139,28.4261 70.5139,26.4261 71.5,24.5C 72.1109,27.7209 73.2776,30.7209 75,33.5C 76.1122,42.0514 75.2789,50.3847 72.5,58.5C 60.2782,72.4819 46.2782,74.6485 30.5,65C 16.9079,52.335 15.0745,38.1684 25,22.5C 26.4877,20.84 28.321,19.84 30.5,19.5 Z"/></g>
<g><path style="opacity:1" fill="#fea300" d="M 33.5,22.5 C 34.8333,23.5 36.1667,24.5 37.5,25.5C 32.8204,29.3546 30.487,34.188 30.5,40C 32.7117,55.11 41.3784,61.4433 56.5,59C 68.2001,52.2842 70.8668,43.1175 64.5,31.5C 65.7079,30.7659 67.0413,30.4326 68.5,30.5C 69.7899,31.0577 70.6232,32.0577 71,33.5C 72.4924,38.4107 72.8257,43.4107 72,48.5C 66.7573,62.8606 56.924,68.3606 42.5,65C 29.1876,60.2224 23.021,50.7224 24,36.5C 25.1085,29.801 28.2752,25.1344 33.5,22.5 Z"/></g>
<g><path style="opacity:1" fill="#ffb102" d="M 37.5,25.5 C 45.7283,30.7944 54.7283,32.7944 64.5,31.5C 70.8668,43.1175 68.2001,52.2842 56.5,59C 41.3784,61.4433 32.7117,55.11 30.5,40C 30.487,34.188 32.8204,29.3546 37.5,25.5 Z"/></g>
<g><path style="opacity:1" fill="#e6e7e9" d="M 131.5,45.5 C 125.486,37.4932 117.486,33.1599 107.5,32.5C 117.376,25.952 125.209,27.952 131,38.5C 131.497,40.8098 131.663,43.1432 131.5,45.5 Z"/></g>
<g><path style="opacity:1" fill="#01a0fe" d="M 132.5,53.5 C 131.041,53.4326 129.708,53.7659 128.5,54.5C 127.833,54.8333 127.167,55.1667 126.5,55.5C 126.062,55.5654 125.728,55.3988 125.5,55C 127.8,52.995 127.8,50.8283 125.5,48.5C 117.351,39.5982 109.518,39.2649 102,47.5C 96.7353,57.5886 99.2353,65.0886 109.5,70C 111.81,70.4966 114.143,70.6633 116.5,70.5C 116.246,68.5992 116.58,67.9326 117.5,68.5C 117.5,69.5 117.5,70.5 117.5,71.5C 116.532,73.6074 116.198,75.9407 116.5,78.5C 115.778,78.0825 115.278,77.4158 115,76.5C 101.29,77.4812 93.4569,70.9812 91.5,57C 92.2436,48.2819 96.2436,41.6152 103.5,37C 115.699,34.0128 125.199,37.8461 132,48.5C 132.494,50.1341 132.66,51.8008 132.5,53.5 Z"/></g>
<g><path style="opacity:1" fill="#cac9c9" d="M 19.5,18.5 C 9.2598,28.8977 5.92646,41.231 9.5,55.5C 5.01764,52.8617 1.68431,49.195 -0.5,44.5C -0.5,39.8333 -0.5,35.1667 -0.5,30.5C 3.86233,22.8303 10.529,18.8303 19.5,18.5 Z"/></g>
<g><path style="opacity:1" fill="#02b1ff" d="M 126.5,55.5 C 123.077,59.581 120.077,63.9144 117.5,68.5C 116.58,67.9326 116.246,68.5992 116.5,70.5C 114.143,70.6633 111.81,70.4966 109.5,70C 99.2353,65.0886 96.7353,57.5886 102,47.5C 109.518,39.2649 117.351,39.5982 125.5,48.5C 127.8,50.8283 127.8,52.995 125.5,55C 125.728,55.3988 126.062,55.5654 126.5,55.5 Z"/></g>
<g><path style="opacity:1" fill="#0c87fe" d="M 107.5,32.5 C 117.486,33.1599 125.486,37.4932 131.5,45.5C 133.485,48.1209 134.485,51.1209 134.5,54.5C 133.833,54.1667 133.167,53.8333 132.5,53.5C 132.66,51.8008 132.494,50.1341 132,48.5C 125.199,37.8461 115.699,34.0128 103.5,37C 96.2436,41.6152 92.2436,48.2819 91.5,57C 93.4569,70.9812 101.29,77.4812 115,76.5C 115.278,77.4158 115.778,78.0825 116.5,78.5C 116.733,80.0618 117.4,81.3951 118.5,82.5C 111.09,83.9689 103.756,83.4689 96.5,81C 85.2245,71.9598 82.0579,60.4598 87,46.5C 88.6707,43.018 90.8373,40.018 93.5,37.5C 97.5379,34.3159 102.205,32.6493 107.5,32.5 Z"/></g>
<g><path style="opacity:1" fill="#fcfdfd" d="M 128.5,54.5 C 139.441,56.5608 142.608,62.8942 138,73.5C 136.421,75.0412 134.587,76.2078 132.5,77C 127.574,78.0362 122.907,77.5362 118.5,75.5C 117.571,74.3112 117.238,72.9778 117.5,71.5C 117.5,70.5 117.5,69.5 117.5,68.5C 120.077,63.9144 123.077,59.581 126.5,55.5C 127.167,55.1667 127.833,54.8333 128.5,54.5 Z"/></g>
<g><path style="opacity:1" fill="#0c67fd" d="M 93.5,37.5 C 90.8373,40.018 88.6707,43.018 87,46.5C 82.0579,60.4598 85.2245,71.9598 96.5,81C 103.756,83.4689 111.09,83.9689 118.5,82.5C 119.492,82.3284 120.158,82.6618 120.5,83.5C 105.558,89.4669 93.3915,85.8002 84,72.5C 79.1027,62.4481 79.7694,52.7815 86,43.5C 88.1057,40.8823 90.6057,38.8823 93.5,37.5 Z"/></g>
<g><path style="opacity:1" fill="#d9dadb" d="M 132.5,53.5 C 133.167,53.8333 133.833,54.1667 134.5,54.5C 137.91,56.9056 140.576,59.9056 142.5,63.5C 142.5,66.5 142.5,69.5 142.5,72.5C 138.17,81.9986 130.836,85.6652 120.5,83.5C 120.158,82.6618 119.492,82.3284 118.5,82.5C 117.4,81.3951 116.733,80.0618 116.5,78.5C 116.198,75.9407 116.532,73.6074 117.5,71.5C 117.238,72.9778 117.571,74.3112 118.5,75.5C 122.907,77.5362 127.574,78.0362 132.5,77C 134.587,76.2078 136.421,75.0412 138,73.5C 142.608,62.8942 139.441,56.5608 128.5,54.5C 129.708,53.7659 131.041,53.4326 132.5,53.5 Z"/></g>
<g><path style="opacity:0.802" fill="#fc650e" d="M 19.5,18.5 C 19.8333,18.5 20.1667,18.5 20.5,18.5C 16.3549,23.5135 13.1883,29.1802 11,35.5C 10.1522,45.0576 11.9855,54.0576 16.5,62.5C 20.6438,65.4763 24.6438,68.643 28.5,72C 51.6353,83.2387 67.9686,77.072 77.5,53.5C 74.947,66.0959 67.6136,74.5959 55.5,79C 37.0003,83.9987 22.5003,78.4987 12,62.5C 10.8638,60.257 10.0305,57.9237 9.5,55.5C 5.92646,41.231 9.2598,28.8977 19.5,18.5 Z"/></g>
<g><path style="opacity:1" fill="#8e018e" d="M 53.5,148.5 C 53.8751,146.302 54.5418,144.302 55.5,142.5C 58.6652,148.108 63.6652,151.275 70.5,152C 89.5618,153.26 101.728,144.76 107,126.5C 108.715,103.264 98.0484,89.9308 75,86.5C 61.8392,87.4905 52.0059,93.6572 45.5,105C 46.8228,105.816 47.4894,106.983 47.5,108.5C 46.078,107.075 44.4113,106.075 42.5,105.5C 42.1583,104.662 41.4916,104.328 40.5,104.5C 38.0646,102.459 37.898,100.126 40,97.5C 56.045,80.8427 74.2117,78.0094 94.5,89C 97.3588,92.241 99.8588,95.741 102,99.5C 108.351,104.548 111.184,111.215 110.5,119.5C 110.542,127.174 109.209,134.507 106.5,141.5C 91.904,159.063 74.2374,162.897 53.5,153C 53.0338,151.701 53.0338,150.201 53.5,148.5 Z"/></g>
<g><path style="opacity:1" fill="#9a059a" d="M 55.5,142.5 C 56.2297,133.884 55.2297,125.55 52.5,117.5C 53.1667,117.5 53.8333,117.5 54.5,117.5C 55.971,121.718 56.971,126.051 57.5,130.5C 57.5,132.833 57.5,135.167 57.5,137.5C 57.1043,140.044 57.771,142.211 59.5,144C 78.023,153.579 92.523,149.413 103,131.5C 108.828,111.323 101.995,97.4896 82.5,90C 66.5887,87.6196 55.2554,93.6196 48.5,108C 49.3805,108.708 50.0472,109.542 50.5,110.5C 51.5063,111.396 51.5063,112.062 50.5,112.5C 49.0256,111.564 48.0256,110.23 47.5,108.5C 47.4894,106.983 46.8228,105.816 45.5,105C 52.0059,93.6572 61.8392,87.4905 75,86.5C 98.0484,89.9308 108.715,103.264 107,126.5C 101.728,144.76 89.5618,153.26 70.5,152C 63.6652,151.275 58.6652,148.108 55.5,142.5 Z"/></g>
<g><path style="opacity:1" fill="#9f009f" d="M 57.5,137.5 C 70.3116,148.133 83.1449,148.133 96,137.5C 106.291,124.218 105.791,111.385 94.5,99C 75.7114,86.9662 61.0447,90.7995 50.5,110.5C 50.0472,109.542 49.3805,108.708 48.5,108C 55.2554,93.6196 66.5887,87.6196 82.5,90C 101.995,97.4896 108.828,111.323 103,131.5C 92.523,149.413 78.023,153.579 59.5,144C 57.771,142.211 57.1043,140.044 57.5,137.5 Z"/></g>
<g><path style="opacity:1" fill="#a500a5" d="M 57.5,137.5 C 57.5,135.167 57.5,132.833 57.5,130.5C 69.3983,144.189 82.065,144.856 95.5,132.5C 102.844,119.737 100.844,108.57 89.5,99C 70.5496,91.4746 58.8829,97.6413 54.5,117.5C 53.8333,117.5 53.1667,117.5 52.5,117.5C 51.5592,115.95 50.8925,114.284 50.5,112.5C 51.5063,112.062 51.5063,111.396 50.5,110.5C 61.0447,90.7995 75.7114,86.9662 94.5,99C 105.791,111.385 106.291,124.218 96,137.5C 83.1449,148.133 70.3116,148.133 57.5,137.5 Z"/></g>
<g><path style="opacity:1" fill="#ab00ab" d="M 57.5,130.5 C 56.971,126.051 55.971,121.718 54.5,117.5C 58.8829,97.6413 70.5496,91.4746 89.5,99C 100.844,108.57 102.844,119.737 95.5,132.5C 82.065,144.856 69.3983,144.189 57.5,130.5 Z"/></g>
<g><path style="opacity:1" fill="#b200b2" d="M 71.5,100.5 C 89.0929,99.0916 96.7596,107.092 94.5,124.5C 88.0556,136.316 79.2222,138.65 68,131.5C 67.6667,131.833 67.3333,132.167 67,132.5C 57.2149,120.101 58.7149,109.434 71.5,100.5 Z"/></g>
<g><path style="opacity:1" fill="#fafafa" d="M 42.5,105.5 C 44.4113,106.075 46.078,107.075 47.5,108.5C 48.0256,110.23 49.0256,111.564 50.5,112.5C 50.8925,114.284 51.5592,115.95 52.5,117.5C 55.2297,125.55 56.2297,133.884 55.5,142.5C 54.5418,144.302 53.8751,146.302 53.5,148.5C 52.8333,148.5 52.5,148.833 52.5,149.5C 44.0487,150.39 36.0487,148.724 28.5,144.5C 17.2965,125.776 21.9631,112.776 42.5,105.5 Z"/></g>
<g><path style="opacity:1" fill="#d4d5d4" d="M 40.5,104.5 C 41.4916,104.328 42.1583,104.662 42.5,105.5C 21.9631,112.776 17.2965,125.776 28.5,144.5C 36.0487,148.724 44.0487,150.39 52.5,149.5C 50.9478,152.112 48.6145,153.445 45.5,153.5C 26.2029,151.378 17.3695,140.711 19,121.5C 21.6532,114.021 26.4865,108.688 33.5,105.5C 35.717,104.631 38.0504,104.298 40.5,104.5 Z"/></g>
<g><path style="opacity:0.58" fill="#a8a8a8" d="M 31.5,105.5 C 32.1667,105.5 32.8333,105.5 33.5,105.5C 26.4865,108.688 21.6532,114.021 19,121.5C 17.3695,140.711 26.2029,151.378 45.5,153.5C 44.4324,154.434 43.099,154.768 41.5,154.5C 25.7074,153.709 17.0407,145.376 15.5,129.5C 16.5218,118.503 21.8551,110.503 31.5,105.5 Z"/></g>
<g><path style="opacity:1" fill="#770977" d="M 102.5,150.5 C 101.5,150.833 100.833,151.5 100.5,152.5C 91.8879,159.801 81.8879,163.801 70.5,164.5C 66.1018,164.706 61.7685,164.373 57.5,163.5C 51.2296,162.035 45.8963,159.035 41.5,154.5C 43.099,154.768 44.4324,154.434 45.5,153.5C 48.6145,153.445 50.9478,152.112 52.5,149.5C 52.5,148.833 52.8333,148.5 53.5,148.5C 53.0338,150.201 53.0338,151.701 53.5,153C 74.2374,162.897 91.904,159.063 106.5,141.5C 109.209,134.507 110.542,127.174 110.5,119.5C 111.184,111.215 108.351,104.548 102,99.5C 99.8588,95.741 97.3588,92.241 94.5,89C 74.2117,78.0094 56.045,80.8427 40,97.5C 37.898,100.126 38.0646,102.459 40.5,104.5C 38.0504,104.298 35.717,104.631 33.5,105.5C 32.8333,105.5 32.1667,105.5 31.5,105.5C 41.5571,85.9704 57.5571,77.8037 79.5,81C 100.231,86.7578 111.564,100.424 113.5,122C 113.059,132.836 109.392,142.336 102.5,150.5 Z"/></g>
<g><path style="opacity:1" fill="#f8f6f8" d="M 100.5,152.5 C 100.726,155.249 100.393,157.916 99.5,160.5C 95.6481,164.186 91.6481,167.686 87.5,171C 81.0602,172.577 75.3935,171.244 70.5,167C 68.5,166.667 66.5,166.333 64.5,166C 66.7078,165.809 68.7078,165.309 70.5,164.5C 81.8879,163.801 91.8879,159.801 100.5,152.5 Z"/></g>
<g><path style="opacity:1" fill="#d3d3d3" d="M 102.5,150.5 C 103.725,163.802 98.0581,172.969 85.5,178C 72.4079,180.288 63.0746,175.455 57.5,163.5C 61.7685,164.373 66.1018,164.706 70.5,164.5C 68.7078,165.309 66.7078,165.809 64.5,166C 66.5,166.333 68.5,166.667 70.5,167C 75.3935,171.244 81.0602,172.577 87.5,171C 91.6481,167.686 95.6481,164.186 99.5,160.5C 100.393,157.916 100.726,155.249 100.5,152.5C 100.833,151.5 101.5,150.833 102.5,150.5 Z"/></g>
</svg>
